<?xml version="1.0" standalone="no"?><!DOCTYPE svg PUBLIC "-//W3C//DTD SVG 1.1//EN" "http://www.w3.org/Graphics/SVG/1.1/DTD/svg11.dtd"><svg t="1754382402103" class="icon" viewBox="0 0 1024 1024" version="1.1" xmlns="http://www.w3.org/2000/svg" p-id="11807" xmlns:xlink="http://www.w3.org/1999/xlink" width="200" height="200"><path d="M513.60017 64C266.20017 63.4 65.20017 263.4 64.40017 510.8L63.60017 851.4a107.2 107.2 0 0 0 107.2 107.8l340.4 0.8c247.4 0.6 448.6-199.4 449.2-446.8S761.00017 64.6 513.60017 64z m339.6 314.4L729.60017 253.2c4.6-9.4 7.6-18.4 7.6-28.6v-3.2l110.4 112.2a202 202 0 0 1 5.6 44.8zM725.60017 188.6a212.12 212.12 0 0 1 117 127.6l-108.6-109.2a52.96 52.96 0 0 0-8.4-18.4zM299.80017 494.4a99.32 99.32 0 0 0-15.4 22.8l-17-17a171.56 171.56 0 0 1 32.4-5.8zM257.60017 502.8l23.6 23.8-1.8 16a69.48 69.48 0 0 0 4.8 25l-54-54.4a161.2 161.2 0 0 1 27.4-10.4z m-36.4 14.8l76.4 76.8a106.34 106.34 0 0 0-28.2 9.4L198.80017 532a214 214 0 0 1 22.4-14.4z m-30.4 19.6l70.6 71a134.5 134.5 0 0 0-21 17L170.60017 556a128.66 128.66 0 0 1 20.2-18.8z m-26.6 24.6l69.8 70a113.68 113.68 0 0 0-15.4 22.8l-71.6-71.8c5.6-7.6 11.4-14.4 17.2-21z m-22 28.6l72.8 73.2a96.58 96.58 0 0 0-7.2 30.4l-79-79.6a199.62 199.62 0 0 1 13.4-24z m-17.6 32.6l82.6 83.6a126.94 126.94 0 0 0 13.4 52.4L115.20017 652c2.8-9.8 5.8-19.2 9.4-29z m-15.8 86l123.8 124.4a62.48 62.48 0 0 0-7.2 28.6v2.2l-110.8-111.4a176.54 176.54 0 0 1-5.8-43.8z m10.6 61.4l108.6 109.2a56.88 56.88 0 0 0 8.4 18.4 212.64 212.64 0 0 1-117-127.6z m-10.6-74a161.38 161.38 0 0 1 4.2-34l144.4 145a75.18 75.18 0 0 0-19.8 17.4z m506.6-103.6l-85.2-0.2-0.2 112c-0.4 138.6-128.8 231.6-251.4 205.8-11.4 0-39.8-17.4-39.8-48.4a49.78 49.78 0 0 1 49-49.2c12.6 0 12.6 3.2 31.4 3.2a111.82 111.82 0 0 0 112.2-111.8l0.2-94c0-9-9-18-17.8-18l-67.2-0.2c-65.2-0.2-65-98.8 0.2-98.6l85.2 0.2 0.2-112a210.36 210.36 0 0 1 211.2-210 172.7 172.7 0 0 1 40.4 4.6c22.4 3.6 39.8 23.8 39.8 48 0 31-29.8 55.6-60.6 47.8-54.8-11.8-131.8 28.8-132 109.8l-0.2 94a17.88 17.88 0 0 0 17.8 18l67.2 0.2c65 0.4 64.8 99-0.4 98.8z m47-0.6a71.16 71.16 0 0 0 15.2-22.8l17 17a204 204 0 0 1-32.2 5.8z m42-8.4L680.80017 560l1.8-16.2a69.48 69.48 0 0 0-4.8-25l54 54.4a149.78 149.78 0 0 1-27.4 10.6z m36-14.8l-76-76.8c9.8-2.2 19.2-4.8 27.4-9.4l72.4 71.8c-7.6 5-15.8 10-23.8 14.4z m31-19.6l-70.6-71a122.12 122.12 0 0 0 21-17l69.8 70a249.12 249.12 0 0 1-20.2 18z m26.4-24.6l-69.8-70a126.36 126.36 0 0 0 15.4-22.8l71.6 71.8a260.56 260.56 0 0 1-17.2 21z m22-28.6l-72.8-73.2a96.58 96.58 0 0 0 7.2-30.4l79 79.6a175.44 175.44 0 0 1-13.4 24z m27-61.8a281.26 281.26 0 0 1-9.4 28.6L754.80017 380a116.38 116.38 0 0 0-14.2-52.4z m2-11.2l-143.8-144.2a64 64 0 0 0 19.8-18.4l128.6 129.4a181.86 181.86 0 0 1-4.6 33.2z" fill="#1296db" p-id="11808"></path></svg>